<svg width="1440" height="742" viewBox="0 0 1440 742" fill="none" xmlns="http://www.w3.org/2000/svg">
<path opacity="0.06" d="M-32.2271 596.551C-39.722 600.475 -47.0309 604.709 -54.2044 609.14C-46.966 599.904 -40.0572 590.374 -33.9258 580.37C-46.906 590.84 -58.6746 602.726 -70.0645 614.851L-75.6623 620.962L-81.1752 627.157C-82.8752 629.074 -82.6928 631.98 -80.7749 633.677C-79.1318 635.128 -76.7264 635.201 -75.0158 633.978C-70.6282 630.859 -66.2706 627.705 -61.9636 624.438C-51.1908 616.291 -40.6488 607.823 -30.7426 598.613C-29.0303 596.988 -26.4959 594.624 -24.8686 592.915C-26.9881 593.865 -30.0841 595.447 -32.2073 596.546L-32.2271 596.551ZM-23.4129 666.869C-26.646 671.102 -33.28 667.505 -31.4368 662.472C-24.5748 644.769 -17.0468 627.274 -7.0289 611.075C-8.71214 621.129 -11.2799 630.948 -14.2551 640.662C-10.5859 636.4 -6.83169 632.222 -2.97206 628.206C0.391088 624.72 3.81432 621.302 7.51667 618.065C5.43563 622.506 3.09008 626.741 0.694731 630.948C-6.48824 643.333 -14.8093 655.402 -23.4129 666.869ZM39.8624 688.236C39.1727 693.646 31.4131 693.694 30.6846 688.272C28.0809 666.314 26.1195 644.063 27.0647 621.945C30.5193 633.326 33.0686 644.963 35.192 656.668C36.7515 647.848 38.5791 639.085 40.7995 630.453C41.4201 628.12 42.3096 624.704 43.035 622.449C43.2279 624.825 43.2765 628.356 43.3309 630.767C43.5915 649.958 42.0527 669.213 39.8529 688.281L39.8624 688.236ZM109.24 696.064L102.25 686.442C86.1641 663.884 70.3668 640.808 56.7278 616.688C68.2024 628.945 78.9731 641.827 89.4284 654.96C84.2177 643.485 79.2541 631.904 74.6468 620.231C73.396 617.032 71.5824 612.313 70.4855 609.138C72.4123 611.93 75.0851 616.215 76.9283 619.092C91.5125 642.376 104.648 666.753 117.08 691.27C119.561 696.365 112.629 700.586 109.226 696.089L109.24 696.064ZM109.408 613.864C101.789 606.873 94.1613 599.927 86.803 592.636C95.477 598.32 103.856 604.334 112.275 610.338C133.069 625.306 153.757 641.252 173.815 657.213L185.873 666.914C187.66 668.349 188.137 670.926 186.904 672.932C185.568 675.113 182.723 675.787 180.535 674.434C171.869 669.107 163.212 663.734 154.619 658.282C128.84 641.841 103.301 625.022 78.7762 606.738C98.242 616.334 117.278 626.717 136.113 637.469C127.065 629.688 118.12 621.817 109.393 613.889L109.408 613.864ZM185.091 605.673C169.332 600.031 153.656 594.304 138.143 588.472C124.062 583.112 109.962 577.758 95.9966 572.031C110.605 575.841 125.079 580.023 139.571 584.2C175.472 594.708 211.861 606.123 247.443 617.767L268.902 624.865C271.144 625.613 272.517 627.978 271.946 630.341C271.342 632.818 268.845 634.35 266.366 633.748L244.064 628.366C192.134 615.577 139.976 602.151 88.8461 586.581C120.953 592.228 153.093 598.732 185.096 605.693L185.091 605.673ZM208.633 559.331C188.486 557.948 168.397 556.464 148.515 554.801C131.232 553.308 113.955 551.834 96.6941 549.935C114.057 549.783 131.399 550.037 148.736 550.272C191.761 551.024 235.636 552.527 278.676 554.478L304.639 555.727C307.035 555.845 308.974 557.789 309.034 560.22C309.104 562.776 307.079 564.903 304.535 564.95C235.588 566.777 165.084 567.974 96.1581 566.294C133.227 563.211 171.047 561.072 208.608 559.317L208.633 559.331ZM97.6656 542.596C138.242 528.839 179.518 515.659 220.931 502.929C198.77 507.551 176.519 512.07 155.321 516.252C134.884 520.195 114.458 524.178 93.9447 527.741C122.931 519.706 155.287 511.557 184.601 504.218C223.575 494.546 266.759 484.331 306.026 475.3L336.464 468.387C338.84 467.856 341.251 469.256 341.925 471.613C342.624 474.068 341.217 476.627 338.758 477.327C323.829 481.657 293.688 490.287 278.733 494.519C219.095 511.251 157.822 528.028 97.6407 542.582L97.6656 542.596ZM350.749 375.297C265.454 424.576 177.834 474.501 90.8923 520.685C136.074 492.172 182.305 464.041 228.739 436.364C202.406 449.343 175.776 462.315 150.493 474.453C128.103 485.124 105.719 495.815 83.1327 506.137C114.392 488.612 149.463 469.826 181.233 452.886C223.504 430.422 270.435 406.054 313.176 384.1L346.31 367.208C351.793 364.649 355.742 372.232 350.734 375.321L350.749 375.297ZM315.396 274.434C295.706 293.328 244.888 342.073 225.634 360.201C176.02 407.158 124.632 455.249 73.8625 500.923C111.837 461.706 151.448 421.959 191.394 382.526C171.014 400.059 150.047 417.935 130.6 434.425C109.848 451.907 89.1007 469.408 68.0883 486.62C87.7595 467.9 107.701 449.489 127.618 431.063C166.296 395.46 209.059 356.795 248.258 321.732L309.123 267.664C310.979 266.023 313.811 266.112 315.526 267.925C317.292 269.766 317.226 272.694 315.381 274.459L315.396 274.434Z" fill="url(#paint0_radial_3467_48824)"/>
<path opacity="0.06" d="M1500.62 146.167C1507.68 141.51 1514.53 136.562 1521.22 131.433C1514.94 141.349 1509.03 151.526 1503.93 162.095C1515.8 150.374 1526.31 137.366 1536.42 124.157L1541.38 117.514L1546.24 110.797C1547.74 108.719 1547.27 105.846 1545.19 104.351C1543.41 103.072 1541.01 103.241 1539.43 104.63C1535.38 108.174 1531.36 111.749 1527.4 115.433C1517.5 124.621 1507.86 134.105 1498.93 144.264C1497.39 146.053 1495.11 148.66 1493.66 150.523C1495.67 149.365 1498.6 147.48 1500.6 146.174L1500.62 146.167ZM1484.78 77.0902C1487.57 72.5535 1494.54 75.4659 1493.21 80.659C1488.16 98.9611 1482.43 117.124 1474.09 134.248C1474.75 124.076 1476.32 114.048 1478.3 104.084C1475.08 108.693 1471.77 113.228 1468.33 117.611C1465.33 121.418 1462.27 125.162 1458.91 128.755C1460.54 124.127 1462.45 119.678 1464.41 115.252C1470.31 102.207 1477.37 89.3636 1484.78 77.0902ZM1419.68 62.1887C1419.82 56.7371 1427.54 55.9096 1428.81 61.2309C1433.6 82.8162 1437.79 104.757 1439.07 126.858C1434.49 115.882 1430.79 104.56 1427.5 93.128C1426.83 102.06 1425.9 110.962 1424.55 119.774C1424.17 122.158 1423.63 125.645 1423.13 127.962C1422.7 125.617 1422.3 122.109 1422 119.715C1419.82 100.648 1419.41 81.3358 1419.69 62.1433L1419.68 62.1887ZM1349.87 61.3718L1357.79 70.2424C1376.06 91.0702 1394.1 112.442 1410.09 135.069C1397.44 124.027 1385.43 112.293 1373.71 100.277C1380.05 111.17 1386.15 122.194 1391.9 133.345C1393.47 136.402 1395.75 140.914 1397.16 143.963C1394.96 141.38 1391.87 137.384 1389.75 134.708C1372.9 113.006 1357.38 90.0726 1342.55 66.929C1339.57 62.1095 1346.04 57.2132 1349.88 61.3456L1349.87 61.3718ZM1357.96 143.172C1366.24 149.362 1374.53 155.507 1382.58 162.021C1373.38 157.238 1364.44 152.096 1355.46 146.969C1333.27 134.165 1311.08 120.379 1289.52 106.514L1276.55 98.0741C1274.63 96.8253 1273.9 94.3101 1274.92 92.1895C1276.03 89.8853 1278.79 88.929 1281.11 90.0551C1290.26 94.4851 1299.42 98.9605 1308.51 103.522C1335.81 117.289 1362.91 131.457 1389.15 147.185C1368.82 139.592 1348.84 131.175 1329.02 122.37C1338.8 129.203 1348.49 136.135 1357.97 143.146L1357.96 143.172ZM1283.48 158.926C1299.73 162.956 1315.9 167.079 1331.92 171.323C1346.47 175.241 1361.04 179.151 1375.51 183.446C1360.59 181.124 1345.77 178.417 1330.93 175.717C1294.15 168.87 1256.8 161.169 1220.23 153.158L1198.17 148.252C1195.86 147.733 1194.26 145.518 1194.59 143.11C1194.94 140.585 1197.27 138.81 1199.8 139.16L1222.53 142.273C1275.48 149.78 1328.72 157.898 1381.16 168.252C1348.65 165.859 1316.02 162.617 1283.47 158.907L1283.48 158.926ZM1264.72 207.399C1284.9 206.751 1305.04 206.209 1324.99 205.866C1342.33 205.615 1359.67 205.345 1377.03 205.5C1359.77 207.396 1342.49 208.886 1325.22 210.394C1282.34 213.968 1238.53 216.882 1195.51 219.265L1169.56 220.631C1167.16 220.755 1165.04 219.015 1164.73 216.602C1164.41 214.067 1166.21 211.747 1168.73 211.444C1237.15 202.699 1307.18 194.424 1375.92 189.17C1339.35 195.962 1301.94 201.891 1264.74 207.411L1264.72 207.399ZM1376.8 212.9C1337.81 230.665 1298.07 247.925 1258.15 264.751C1279.73 257.926 1301.42 251.194 1322.09 244.903C1342.02 238.927 1361.95 232.912 1382 227.306C1353.97 238.213 1322.59 249.571 1294.16 259.819C1256.36 273.358 1214.42 287.86 1176.26 300.791L1146.67 310.727C1144.36 311.494 1141.82 310.343 1140.91 308.066C1139.97 305.693 1141.11 303.007 1143.49 302.063C1157.91 296.254 1187.03 284.64 1201.48 278.927C1259.14 256.287 1318.42 233.438 1376.83 212.912L1376.8 212.9ZM1141.81 404.782C1221.72 347.181 1303.88 288.706 1385.74 234.02C1343.66 266.928 1300.48 299.562 1257.07 331.764C1281.96 316.205 1307.15 300.623 1331.09 286.006C1352.29 273.139 1373.49 260.253 1394.93 247.714C1365.59 268.291 1332.58 290.506 1302.67 310.552C1262.87 337.15 1218.63 366.111 1178.31 392.248L1147.04 412.384C1141.84 415.481 1137.15 408.333 1141.82 404.756L1141.81 404.782ZM1187.12 501.582C1204.81 480.805 1250.47 427.2 1267.81 407.23C1312.45 355.526 1358.75 302.514 1404.67 251.97C1370.83 294.805 1335.41 338.33 1299.63 381.577C1318.15 362.085 1337.21 342.193 1354.9 323.833C1373.79 304.354 1392.68 284.856 1411.86 265.62C1394.16 286.223 1376.17 306.544 1358.21 326.878C1323.3 366.187 1284.64 408.953 1249.17 447.777L1194.04 507.688C1192.36 509.507 1189.53 509.702 1187.64 508.071C1185.7 506.416 1185.47 503.497 1187.13 501.556L1187.12 501.582Z" fill="url(#paint1_radial_3467_48824)"/>
<defs>
<radialGradient id="paint0_radial_3467_48824" cx="0" cy="0" r="1" gradientUnits="userSpaceOnUse" gradientTransform="translate(134.269 492.127) rotate(-7.18988) scale(217.551 217.282)">
<stop offset="0.3" stop-color="#FDEE00"/>
<stop offset="0.36" stop-color="#F2EB06"/>
<stop offset="0.47" stop-color="#D5E416"/>
<stop offset="0.61" stop-color="#A6D831"/>
<stop offset="0.77" stop-color="#66C956"/>
<stop offset="0.96" stop-color="#14B585"/>
<stop offset="1" stop-color="#00B091"/>
</radialGradient>
<radialGradient id="paint1_radial_3467_48824" cx="0" cy="0" r="1" gradientUnits="userSpaceOnUse" gradientTransform="translate(1345.46 266.791) rotate(167.043) scale(217.551 217.282)">
<stop offset="0.3" stop-color="#FDEE00"/>
<stop offset="0.36" stop-color="#F2EB06"/>
<stop offset="0.47" stop-color="#D5E416"/>
<stop offset="0.61" stop-color="#A6D831"/>
<stop offset="0.77" stop-color="#66C956"/>
<stop offset="0.96" stop-color="#14B585"/>
<stop offset="1" stop-color="#00B091"/>
</radialGradient>
</defs>
</svg>
