<svg width="628" height="524" viewBox="0 0 628 524" fill="none" xmlns="http://www.w3.org/2000/svg">
<path opacity="0.93" d="M554.135 160.57C564.794 156.931 575.268 152.837 585.635 148.451C574.115 159.079 562.937 170.132 552.678 181.985C571.964 170.874 589.994 157.676 607.575 144.092L616.265 137.211L624.845 130.214C627.483 128.065 627.916 124.216 625.82 121.642C623.998 119.433 620.911 118.863 618.381 120.138C611.951 123.351 605.563 126.621 599.205 130.021C583.312 138.521 567.671 147.535 552.683 157.596C550.074 159.394 546.228 161.972 543.757 163.864C546.753 163.028 551.137 161.583 554.135 160.57ZM558.618 67.2313C563.777 62.3604 571.604 68.325 568.067 74.5431C555.112 96.2712 541.326 117.615 524.6 136.759C529.082 123.993 534.661 111.696 540.74 99.6154C535 104.463 529.155 109.171 523.215 113.663C518.054 117.545 512.805 121.34 507.249 124.817C510.963 119.432 514.984 114.366 519.072 109.359C531.245 94.6049 544.816 80.5104 558.639 67.2593L558.618 67.2313ZM481.005 27.0126C483.122 20.1069 493.237 21.5454 492.976 28.7633C491.389 57.8698 488.895 87.2666 482.631 115.905C480.726 100.4 480.037 84.7456 479.935 69.0644C475.899 80.2389 471.524 91.2944 466.675 102.137C465.341 105.061 463.393 109.351 461.929 112.131C462.228 109 462.957 104.377 463.434 101.243C467.45 76.198 473.818 51.3758 481.008 26.9877L481.005 27.0126ZM392.399 3.2954L399.324 17.1823C415.14 49.7191 430.505 82.8831 442.785 116.973C430.626 98.7696 419.489 79.8595 408.846 60.708C413.017 76.6785 416.869 92.7353 420.23 108.856C421.13 113.281 422.429 119.759 423.135 124.134C421.258 120.117 418.734 114.016 416.996 109.916C403.288 76.7088 391.702 42.4029 381.064 8.04001C378.997 0.931835 388.977 -3.24987 392.399 3.2954ZM373.536 110.372C381.851 120.962 390.224 131.509 398.155 142.456C388.166 133.352 378.59 123.869 368.982 114.432C345.302 90.8591 321.96 66.0614 299.444 41.3434L285.957 26.3683C283.957 24.1617 283.899 20.7063 285.986 18.335C288.232 15.7558 292.089 15.435 294.628 17.6086C304.713 26.2438 314.766 34.9254 324.726 43.722C354.597 70.1614 384.039 97.0787 411.828 125.687C388.642 109.377 366.204 92.1484 344.092 74.4539C354.109 86.3761 363.961 98.3789 373.557 110.4L373.536 110.372ZM273.08 106.292C292.315 116.699 311.453 127.246 330.327 137.861C347.456 147.595 364.614 157.307 381.493 167.516C363.335 159.705 345.402 151.415 327.49 143.154C283.108 122.475 238.293 100.473 194.561 78.3561L168.218 64.9405C165.463 63.5252 164.221 60.1728 165.509 57.2181C166.848 54.0925 170.452 52.5987 173.557 53.881L201.405 65.2567C266.158 92.0506 331.057 119.725 394.136 150.007C353.581 136.382 313.196 121.637 273.076 106.317L273.08 106.292ZM231.886 162.078C257.825 167.811 283.667 173.684 309.179 179.717C331.346 185.046 353.52 190.326 375.582 196.174C352.937 192.99 330.4 189.261 307.855 185.583C251.975 176.22 195.159 165.673 139.518 154.742L105.957 148.04C102.877 147.421 100.781 144.517 101.24 141.33C101.748 137.998 104.85 135.629 108.192 136.028C198.443 147.101 290.554 159.297 379.955 174.952C330.96 171.737 281.207 167.159 231.882 162.103L231.886 162.078ZM372.659 205.538C316.673 215.556 259.886 224.662 203.062 233.179C232.976 231.482 262.995 229.925 291.555 228.613C319.077 227.449 346.578 226.256 374.124 225.601C334.547 230.405 290.524 234.719 250.688 238.552C197.7 243.551 139.142 248.451 85.9378 252.536L44.7194 255.61C41.5113 255.835 38.6855 253.549 38.3368 250.336C37.9821 246.995 40.4035 243.931 43.7453 243.494C64.1676 240.767 105.407 235.388 125.856 232.817C207.357 222.646 291 212.748 372.688 205.516L372.659 205.538ZM4.95954 374.201C127.272 326.601 252.757 278.67 376.515 235.413C311.163 263.762 244.549 291.393 177.773 318.42C215.034 306.654 252.668 294.936 288.346 284.058C319.937 274.512 351.531 264.941 383.274 255.896C338.577 272.649 288.618 290.279 243.369 306.151C183.195 327.172 116.508 349.774 55.863 370.051L8.85732 385.624C1.14952 387.889 -2.30625 377.232 4.93469 374.198L4.95954 374.201ZM28.1071 512.531C58.057 491.747 135.303 438.137 164.532 418.251C239.811 366.723 317.672 314.079 394.205 264.486C335.807 308.197 275.197 352.26 214.2 395.868C244.745 377.011 276.109 357.776 305.18 340.1C336.191 321.353 367.177 302.603 398.476 284.298C368.61 304.864 338.459 324.963 308.305 345.087C249.834 383.945 185.341 425.993 126.311 464.02L34.7493 522.604C31.9654 524.38 28.2845 523.709 26.4599 521.018C24.5681 518.267 25.3217 514.484 28.132 512.534L28.1071 512.531Z" fill="url(#paint0_radial_3497_53074)"/>
<defs>
<radialGradient id="paint0_radial_3497_53074" cx="0" cy="0" r="1" gradientUnits="userSpaceOnUse" gradientTransform="translate(313.436 247.215) rotate(172.001) scale(285.03 281.899)">
<stop stop-color="#F47920"/>
<stop offset="0.16" stop-color="#F17226"/>
<stop offset="0.38" stop-color="#EC6039"/>
<stop offset="0.64" stop-color="#E24257"/>
<stop offset="0.93" stop-color="#D51981"/>
<stop offset="1" stop-color="#D20F8C"/>
</radialGradient>
</defs>
</svg>
